<svg xmlns="http://www.w3.org/2000/svg" version="1.1" viewBox="0 0 40 40" x="0" y="0" width="45" height="45"><circle cx="37" cy="2" r="2" fill="rgb(100, 100, 100)"></circle><circle cx="32" cy="2" r="2" fill="rgb(100, 100, 100)"></circle><circle cx="27" cy="2" r="2" fill="rgb(200, 200, 255)"></circle><circle cx="22" cy="2" r="2" fill="rgb(200, 200, 255)"></circle><circle cx="17" cy="2" r="2" fill="rgb(200, 200, 255)"></circle><circle cx="12" cy="2" r="2" fill="rgb(200, 200, 255)"></circle><circle cx="7" cy="2" r="2" fill="rgb(200, 200, 255)"></circle><circle cx="2" cy="2" r="2" fill="rgb(100, 100, 100)"></circle><circle cx="37" cy="7" r="2" fill="rgb(100, 100, 100)"></circle><circle cx="32" cy="7" r="2" fill="rgb(100, 100, 100)"></circle><circle cx="27" cy="7" r="2" fill="rgb(100, 100, 100)"></circle><circle cx="22" cy="7" r="2" fill="rgb(100, 100, 100)"></circle><circle cx="17" cy="7" r="2" fill="rgb(100, 100, 100)"></circle><circle cx="12" cy="7" r="2" fill="rgb(100, 100, 100)"></circle><circle cx="7" cy="7" r="2" fill="rgb(200, 200, 255)"></circle><circle cx="2" cy="7" r="2" fill="rgb(100, 100, 100)"></circle><circle cx="37" cy="12" r="2" fill="rgb(100, 100, 100)"></circle><circle cx="32" cy="12" r="2" fill="rgb(100, 100, 100)"></circle><circle cx="27" cy="12" r="2" fill="rgb(100, 100, 100)"></circle><circle cx="22" cy="12" r="2" fill="rgb(200, 200, 255)"></circle><circle cx="17" cy="12" r="2" fill="rgb(200, 200, 255)"></circle><circle cx="12" cy="12" r="2" fill="rgb(200, 200, 255)"></circle><circle cx="7" cy="12" r="2" fill="rgb(200, 200, 255)"></circle><circle cx="2" cy="12" r="2" fill="rgb(100, 100, 100)"></circle><circle cx="37" cy="17" r="2" fill="rgb(100, 100, 100)"></circle><circle cx="32" cy="17" r="2" fill="rgb(100, 100, 100)"></circle><circle cx="27" cy="17" r="2" fill="rgb(200, 200, 255)"></circle><circle cx="22" cy="17" r="2" fill="rgb(100, 100, 100)"></circle><circle cx="17" cy="17" r="2" fill="rgb(100, 100, 100)"></circle><circle cx="12" cy="17" r="2" fill="rgb(100, 100, 100)"></circle><circle cx="7" cy="17" r="2" fill="rgb(100, 100, 100)"></circle><circle cx="2" cy="17" r="2" fill="rgb(100, 100, 100)"></circle><circle cx="37" cy="22" r="2" fill="rgb(100, 100, 100)"></circle><circle cx="32" cy="22" r="2" fill="rgb(100, 100, 100)"></circle><circle cx="27" cy="22" r="2" fill="rgb(200, 200, 255)"></circle><circle cx="22" cy="22" r="2" fill="rgb(100, 100, 100)"></circle><circle cx="17" cy="22" r="2" fill="rgb(100, 100, 100)"></circle><circle cx="12" cy="22" r="2" fill="rgb(100, 100, 100)"></circle><circle cx="7" cy="22" r="2" fill="rgb(100, 100, 100)"></circle><circle cx="2" cy="22" r="2" fill="rgb(100, 100, 100)"></circle><circle cx="37" cy="27" r="2" fill="rgb(100, 100, 100)"></circle><circle cx="32" cy="27" r="2" fill="rgb(100, 100, 100)"></circle><circle cx="27" cy="27" r="2" fill="rgb(200, 200, 255)"></circle><circle cx="22" cy="27" r="2" fill="rgb(100, 100, 100)"></circle><circle cx="17" cy="27" r="2" fill="rgb(100, 100, 100)"></circle><circle cx="12" cy="27" r="2" fill="rgb(100, 100, 100)"></circle><circle cx="7" cy="27" r="2" fill="rgb(200, 200, 255)"></circle><circle cx="2" cy="27" r="2" fill="rgb(100, 100, 100)"></circle><circle cx="37" cy="32" r="2" fill="rgb(100, 100, 100)"></circle><circle cx="32" cy="32" r="2" fill="rgb(100, 100, 100)"></circle><circle cx="27" cy="32" r="2" fill="rgb(100, 100, 100)"></circle><circle cx="22" cy="32" r="2" fill="rgb(200, 200, 255)"></circle><circle cx="17" cy="32" r="2" fill="rgb(200, 200, 255)"></circle><circle cx="12" cy="32" r="2" fill="rgb(200, 200, 255)"></circle><circle cx="7" cy="32" r="2" fill="rgb(100, 100, 100)"></circle><circle cx="2" cy="32" r="2" fill="rgb(100, 100, 100)"></circle><circle cx="37" cy="37" r="2" fill="rgb(100, 100, 100)"></circle><circle cx="32" cy="37" r="2" fill="rgb(100, 100, 100)"></circle><circle cx="27" cy="37" r="2" fill="rgb(100, 100, 100)"></circle><circle cx="22" cy="37" r="2" fill="rgb(100, 100, 100)"></circle><circle cx="17" cy="37" r="2" fill="rgb(100, 100, 100)"></circle><circle cx="12" cy="37" r="2" fill="rgb(100, 100, 100)"></circle><circle cx="7" cy="37" r="2" fill="rgb(100, 100, 100)"></circle><circle cx="2" cy="37" r="2" fill="rgb(100, 100, 100)"></circle></svg>